<?xml version="1.0" encoding="UTF-8" standalone="no"?>
<!-- Created with Inkscape (http://www.inkscape.org/) -->

<svg
   xmlns:dc="http://purl.org/dc/elements/1.1/"
   xmlns:cc="http://creativecommons.org/ns#"
   xmlns:rdf="http://www.w3.org/1999/02/22-rdf-syntax-ns#"
   xmlns:svg="http://www.w3.org/2000/svg"
   xmlns="http://www.w3.org/2000/svg"
   xmlns:sodipodi="http://sodipodi.sourceforge.net/DTD/sodipodi-0.dtd"
   xmlns:inkscape="http://www.inkscape.org/namespaces/inkscape"
   width="228.1875"
   height="228.1875"
   id="svg3120"
   version="1.1"
   inkscape:version="0.48.4 r9939"
   sodipodi:docname="donate-icon.svg">
  <defs
     id="defs3122" />
  <sodipodi:namedview
     id="base"
     pagecolor="#ffffff"
     bordercolor="#666666"
     borderopacity="1.0"
     inkscape:pageopacity="0.0"
     inkscape:pageshadow="2"
     inkscape:zoom="0.98994949"
     inkscape:cx="-397.91218"
     inkscape:cy="122.77071"
     inkscape:document-units="px"
     inkscape:current-layer="layer1"
     showgrid="false"
     fit-margin-top="0"
     fit-margin-left="0"
     fit-margin-right="0"
     fit-margin-bottom="0"
     inkscape:window-width="1598"
     inkscape:window-height="849"
     inkscape:window-x="0"
     inkscape:window-y="0"
     inkscape:window-maximized="0" />
  <metadata
     id="metadata3125">
    <rdf:RDF>
      <cc:Work
         rdf:about="">
        <dc:format>image/svg+xml</dc:format>
        <dc:type
           rdf:resource="http://purl.org/dc/dcmitype/StillImage" />
        <dc:title />
      </cc:Work>
    </rdf:RDF>
  </metadata>
  <g
     inkscape:label="Layer 1"
     inkscape:groupmode="layer"
     id="layer1"
     transform="translate(-511.32642,-790.65281)">
    <path
       style="fill:#ffffff;stroke:#ffffff"
       d="m 607.1598,966.16724 c -4.30212,-1.70265 -6.81573,-3.58732 -29.99968,-22.49343 l -23.78672,-19.39765 -12.97336,0 -12.97338,0 0,-20.01957 0,-20.01958 26.54374,0 c 28.454,0 31.70369,0.29898 36.19929,3.33038 1.5066,1.01591 12.53731,11.56339 24.5127,23.43887 23.56052,23.36394 23.82813,23.71446 22.51653,29.49266 -1.1929,5.25534 -7.2332,8.64936 -12.7496,7.16395 -2.23826,-0.6027 -5.07228,-3.02194 -14.6837,-12.53457 -6.55057,-6.48325 -12.00412,-11.65488 -12.119,-11.49251 -0.11488,0.16236 -1.04057,1.59421 -2.05711,3.18189 l -1.84823,2.88667 12.09912,11.61026 c 13.72158,13.16716 15.71618,14.38113 22.73994,13.84012 2.28926,-0.17633 5.44336,-0.97416 7.00912,-1.77295 3.24324,-1.65458 6.76682,-5.60274 7.97527,-8.93627 l 0.8216,-2.2664 26.71748,0.19541 26.71748,0.19539 2.97892,2.09437 c 7.1129,5.00081 6.95245,15.23087 -0.32348,20.62306 -1.92562,1.42708 -2.47586,1.44564 -46.59729,1.57184 -33.10124,0.0947 -45.18426,-0.0843 -46.71964,-0.69194 z"
       id="path3138"
       inkscape:connector-curvature="0" />
    <path
       style="fill:#ffffff;stroke:#ffffff"
       d="m 662.80958,929.72454 c -19.59316,-12.25743 -34.19303,-27.48795 -39.04485,-40.73139 -1.1215,-3.06123 -1.51406,-5.74792 -1.55828,-10.66479 -0.0548,-6.09603 0.10542,-6.90686 2.20983,-11.18152 4.96814,-10.09173 15.09349,-15.25381 26.69694,-13.61055 5.67411,0.80355 10.81614,3.31658 14.90631,7.28509 l 3.14271,3.04921 3.15934,-3.02718 c 10.50686,-10.06734 27.20615,-10.23306 37.07131,-0.3679 7.40648,7.40648 9.19575,18.34445 4.88539,29.8649 -4.6763,12.49854 -19.91043,27.97126 -39.37862,39.99535 -2.87948,1.77845 -5.39493,3.23354 -5.58989,3.23354 -0.19495,0 -3.12004,-1.73014 -6.50019,-3.84476 z m 10.62794,-9.0168 c 10.08717,-6.42355 23.27836,-18.5003 28.32961,-25.93623 5.04521,-7.42704 6.99668,-15.30135 5.24987,-21.18352 -1.51194,-5.09124 -5.79024,-9.29146 -11.00974,-10.80881 -6.98823,-2.03153 -13.58562,0.44323 -21.41177,8.03183 -2.99303,2.90217 -5.38902,4.71082 -5.85727,4.42142 -0.43581,-0.26934 -2.08824,-1.90502 -3.67206,-3.63483 -6.63516,-7.2468 -15.13291,-10.74702 -22.05806,-9.0857 -4.76985,1.14428 -10.16356,6.39083 -11.50118,11.18742 -3.45921,12.40443 8.47653,29.70924 31.17637,45.20046 3.47725,2.37301 6.43382,4.31457 6.57014,4.31457 0.13632,0 2.01916,-1.12798 4.18409,-2.50661 z"
       id="path3136"
       inkscape:connector-curvature="0" />
    <path
       sodipodi:type="arc"
       style="fill:none;stroke:#ffffff;stroke-width:9.50000000000000000;stroke-miterlimit:4;stroke-dasharray:none"
       id="path2983"
       sodipodi:cx="83.085045"
       sodipodi:cy="101.15919"
       sodipodi:rx="109.34901"
       sodipodi:ry="109.34901"
       d="m 192.43405,101.15919 c 0,60.39179 -48.95722,109.349 -109.349005,109.349 -60.391789,0 -109.349007,-48.95721 -109.349007,-109.349 0,-60.391791 48.957218,-109.3490093 109.349007,-109.3490093 60.391785,0 109.349005,48.9572183 109.349005,109.3490093 z"
       transform="translate(542.32642,803.59031)" />
  </g>
</svg>
