<?xml version="1.0" encoding="UTF-8" standalone="no"?>
<!-- Created with Inkscape (http://www.inkscape.org/) -->

<svg
   xmlns:dc="http://purl.org/dc/elements/1.1/"
   xmlns:cc="http://creativecommons.org/ns#"
   xmlns:rdf="http://www.w3.org/1999/02/22-rdf-syntax-ns#"
   xmlns:svg="http://www.w3.org/2000/svg"
   xmlns="http://www.w3.org/2000/svg"
   xmlns:sodipodi="http://sodipodi.sourceforge.net/DTD/sodipodi-0.dtd"
   xmlns:inkscape="http://www.inkscape.org/namespaces/inkscape"
   width="228.1875"
   height="228.1875"
   id="svg2"
   version="1.1"
   inkscape:version="0.48.4 r9939"
   sodipodi:docname="mission-icon.svg">
  <defs
     id="defs4" />
  <sodipodi:namedview
     id="base"
     pagecolor="#ffffff"
     bordercolor="#666666"
     borderopacity="1.0"
     inkscape:pageopacity="0.0"
     inkscape:pageshadow="2"
     inkscape:zoom="0.98994949"
     inkscape:cx="-198.35551"
     inkscape:cy="120.86258"
     inkscape:document-units="px"
     inkscape:current-layer="layer1"
     showgrid="false"
     fit-margin-top="0"
     fit-margin-left="0"
     fit-margin-right="0"
     fit-margin-bottom="0"
     inkscape:window-width="1600"
     inkscape:window-height="853"
     inkscape:window-x="0"
     inkscape:window-y="0"
     inkscape:window-maximized="1" />
  <metadata
     id="metadata7">
    <rdf:RDF>
      <cc:Work
         rdf:about="">
        <dc:format>image/svg+xml</dc:format>
        <dc:type
           rdf:resource="http://purl.org/dc/dcmitype/StillImage" />
        <dc:title />
      </cc:Work>
    </rdf:RDF>
  </metadata>
  <g
     inkscape:label="Layer 1"
     inkscape:groupmode="layer"
     id="layer1"
     transform="translate(-635.82183,-337.02248)">
    <path
       style="fill:#ffffff;stroke:#ffffff"
       d="m 746.67334,542.64201 c -3.93357,-1.82118 -6.90073,-6.11863 -6.90073,-9.99456 0,-3.86289 1.38005,-5.48114 23.89016,-28.01364 l 22.19497,-22.21704 -2.06441,-2.06441 -2.06441,-2.06441 -22.49632,22.44377 c -20.01373,19.96697 -22.7621,22.51368 -24.90474,23.07733 -8.59107,2.26001 -16.42371,-6.63134 -13.01995,-14.77983 0.57892,-1.38591 8.02116,-9.23076 22.91583,-24.15554 l 22.05847,-22.10304 -2.22207,-2.1698 -2.22209,-2.1698 -21.93588,21.86803 c -12.06473,12.02742 -22.79325,22.29926 -23.84115,22.82631 -2.33211,1.17295 -7.03554,1.21583 -9.22408,0.0841 -5.44963,-2.8181 -7.83728,-9.53487 -5.19376,-14.61067 0.58671,-1.12652 10.36409,-11.32753 21.72753,-22.66889 l 20.66079,-20.62068 2.63503,2.01137 c 4.08793,3.12038 6.06299,3.79152 11.32401,3.84792 4.00678,0.0429 5.15657,-0.16717 7.86829,-1.43798 4.4547,-2.08763 8.75393,-6.32643 10.68439,-10.53424 1.31058,-2.85663 1.57778,-4.17885 1.58671,-7.85158 0.0184,-7.53083 -0.46067,-8.29607 -13.32167,-21.28313 l -11.23593,-11.34608 1.79505,-1.68529 c 4.55739,-4.27867 12.77791,-8.55585 20.25048,-10.53643 7.29251,-1.93284 18.40519,-2.04287 25.59961,-0.25347 8.98268,2.23418 16.44096,6.38588 23.50213,13.08259 7.0051,6.64355 12.01456,15.04206 14.49003,24.29299 1.73527,6.48481 1.74998,17.98907 0.0317,24.83882 -1.62725,6.48699 -5.70319,14.90414 -9.91291,20.47095 -4.80181,6.34976 -71.38974,72.38008 -74.34499,73.7224 -2.84436,1.29197 -5.51075,1.29003 -8.31015,-0.006 z m -59.07027,-58.79679 c -2.18279,-0.96202 -4.66434,-3.487 -5.59788,-5.69581 -0.99033,-2.34322 -0.95463,-6.46007 0.0748,-8.62948 0.45409,-0.95693 10.26588,-11.17768 21.80397,-22.71278 l 20.97837,-20.9729 7.73345,7.71865 7.73346,7.71867 -20.01442,20.04132 c -11.00793,11.02273 -21.11283,20.77576 -22.45533,21.6734 -1.99322,1.33275 -3.00571,1.62811 -5.52058,1.61046 -1.69383,-0.0118 -3.82497,-0.35008 -4.73587,-0.75153 z M 673.45773,471.8309 c -5.72035,-6.76285 -10.1346,-15.2436 -12.18264,-23.40554 -1.71106,-6.81895 -1.69308,-18.33768 0.0387,-24.80947 4.01095,-14.9891 14.76747,-27.68154 29.05299,-34.28186 6.96014,-3.21578 12.58625,-4.31625 21.80288,-4.26461 6.27238,0.0351 8.93485,0.29439 12.30194,1.19792 5.48478,1.47178 12.79709,4.89667 17.1468,8.0311 4.98052,3.58899 29.92235,28.85002 30.97355,31.36993 2.1533,5.16187 0.44605,12.39099 -3.90832,16.54929 -4.4822,4.28036 -11.41886,5.61627 -16.37371,3.15333 -1.49356,-0.74241 -9.07618,-7.88789 -21.21606,-19.99292 l -18.8918,-18.8376 -1.68586,1.61517 -1.68586,1.61516 6.35937,6.37599 6.35938,6.37599 -21.00038,20.97272 c -11.55021,11.535 -21.49932,21.76886 -22.10914,22.74191 -0.60981,0.97305 -1.41949,3.29255 -1.79928,5.15444 l -0.69053,3.38526 -2.49205,-2.94621 z"
       id="path2996"
       inkscape:connector-curvature="0" />
    <path
       sodipodi:type="arc"
       style="fill:none;stroke:#ffffff;stroke-width:9.50000000000000000;stroke-miterlimit:4;stroke-dasharray:none"
       id="path2983"
       sodipodi:cx="83.085045"
       sodipodi:cy="101.15919"
       sodipodi:rx="109.34901"
       sodipodi:ry="109.34901"
       d="m 192.43405,101.15919 c 0,60.39179 -48.95722,109.349 -109.349005,109.349 -60.391789,0 -109.349007,-48.95721 -109.349007,-109.349 0,-60.391791 48.957218,-109.3490093 109.349007,-109.3490093 60.391785,0 109.349005,48.9572183 109.349005,109.3490093 z"
       transform="translate(666.82183,349.95998)" />
  </g>
</svg>
