<?xml version="1.0" encoding="UTF-8" standalone="no"?>
<!-- Created with Inkscape (http://www.inkscape.org/) -->

<svg
   xmlns:dc="http://purl.org/dc/elements/1.1/"
   xmlns:cc="http://creativecommons.org/ns#"
   xmlns:rdf="http://www.w3.org/1999/02/22-rdf-syntax-ns#"
   xmlns:svg="http://www.w3.org/2000/svg"
   xmlns="http://www.w3.org/2000/svg"
   xmlns:sodipodi="http://sodipodi.sourceforge.net/DTD/sodipodi-0.dtd"
   xmlns:inkscape="http://www.inkscape.org/namespaces/inkscape"
   width="228.1875"
   height="228.1875"
   id="svg3017"
   version="1.1"
   inkscape:version="0.48.4 r9939"
   sodipodi:docname="projects-icon.svg">
  <defs
     id="defs3019" />
  <sodipodi:namedview
     id="base"
     pagecolor="#ffffff"
     bordercolor="#666666"
     borderopacity="1.0"
     inkscape:pageopacity="0.0"
     inkscape:pageshadow="2"
     inkscape:zoom="1.979899"
     inkscape:cx="94.095798"
     inkscape:cy="106.99825"
     inkscape:document-units="px"
     inkscape:current-layer="layer1"
     showgrid="false"
     inkscape:window-width="1600"
     inkscape:window-height="853"
     inkscape:window-x="0"
     inkscape:window-y="0"
     inkscape:window-maximized="1"
     fit-margin-top="0"
     fit-margin-left="0"
     fit-margin-right="0"
     fit-margin-bottom="0"
     showguides="true"
     inkscape:guide-bbox="true" />
  <metadata
     id="metadata3022">
    <rdf:RDF>
      <cc:Work
         rdf:about="">
        <dc:format>image/svg+xml</dc:format>
        <dc:type
           rdf:resource="http://purl.org/dc/dcmitype/StillImage" />
      </cc:Work>
    </rdf:RDF>
  </metadata>
  <g
     inkscape:label="Layer 1"
     inkscape:groupmode="layer"
     id="layer1"
     transform="translate(-276.07149,-411.31808)">
    <path
       style="fill:#ffffff;stroke:#ffffff"
       d="m 368.62951,598.69402 c 0.0124,-6.26902 -1.34305,24.69532 -0.54282,-0.32968 0.80023,-25.025 -0.0501,-6.90689 -0.0377,-11.59204 l 0.0225,-8.51846 -7.14228,-4.48154 c -9.85981,-6.18671 -16.47393,-13.85689 -22.6664,-26.2855 -5.91608,-11.87388 -14.38627,-22.52896 -21.69132,-27.28661 -7.23549,-4.71235 -9.5,-7.029 -9.5,-9.71872 0,-8.9064 16.96451,-7.76454 31.07206,2.09142 2.95057,2.06136 7.53185,6.44116 10.18061,9.73289 2.64877,3.29173 5.18888,6.11443 5.6447,6.27266 2.15192,0.747 5.70987,-16.62046 4.54726,-22.19654 -0.35448,-1.70013 -3.97453,-14.57749 -8.04457,-28.61634 -4.07003,-14.03886 -7.40006,-26.9437 -7.40006,-28.67742 0,-6.01904 9.37717,-9.85306 13.35314,-5.45967 0.91471,1.01074 5.74122,13.27324 10.72558,27.25 4.98435,13.97675 9.46163,25.82071 9.94949,26.3199 0.52919,0.54147 1.50924,0.39122 2.42941,-0.37245 1.32809,-1.10222 1.5468,-5.60469 1.57418,-32.40762 0.0345,-33.79875 0.0194,-33.70365 5.66349,-35.67117 3.75474,-1.30891 7.6053,0.0466 9.84571,3.46586 1.40197,2.13967 1.72684,6.99495 2.19428,32.79463 0.30177,16.65572 0.82543,31.05227 1.16368,31.99234 1.46005,4.05774 3.69436,-1.35108 10.66912,-25.8279 4.05624,-14.23472 8.04988,-27.33199 8.87475,-29.10506 2.47272,-5.31508 10.09597,-5.77865 12.38573,-0.75317 2.042,4.48169 1.31887,9.79472 -4.82856,35.47692 -5.81364,24.28772 -6.82242,30.0444 -5.25,29.95951 0.4125,-0.0223 6.375,-8.84453 13.25,-19.60504 14.00709,-21.92339 16.08348,-23.91402 21.8395,-20.93747 6.22829,3.22077 4.56452,8.50599 -11.57315,36.76407 l -8.95518,15.68107 -0.67717,13.49338 c -1.06399,21.20108 -5.39175,34.44049 -14.71171,45.00585 l -4.28834,4.86138 0.70011,14.7782 c 1.3187,27.83592 0.0683,7.91127 0.29343,13.72795 l 1.10856,13.59693 -18.87057,-4.86279 c -10.62726,-2.73856 -19.0908,-6.55029 -23.58502,-7.26472 l -8.75508,-1.39176 0.52758,-11.39821 z m 22.89487,-51.66572 c -3.46574,-9.07492 -12.00476,-15.72672 -23.25214,-18.11317 -7.10367,-1.50724 -11.0369,-1.27889 -4.65933,0.2705 12.26777,2.98039 23.41443,11.69189 27.01839,21.1158 1.25913,3.29247 2.0306,4.35713 2.26839,3.13047 0.19819,-1.02237 -0.4207,-3.90399 -1.37531,-6.4036 z"
       id="path3036"
       inkscape:connector-curvature="0"
       sodipodi:nodetypes="csscssssssssssssssssssssssscssscsscsscsscccssssss" />
    <path
       sodipodi:type="arc"
       style="fill:none;stroke:#ffffff;stroke-width:9.50000000000000000;stroke-miterlimit:4;stroke-dasharray:none"
       id="path2983"
       sodipodi:cx="83.085045"
       sodipodi:cy="101.15919"
       sodipodi:rx="109.34901"
       sodipodi:ry="109.34901"
       d="m 192.43405,101.15919 c 0,60.39179 -48.95722,109.349 -109.349005,109.349 -60.391789,0 -109.349007,-48.95721 -109.349007,-109.349 0,-60.391791 48.957218,-109.3490093 109.349007,-109.3490093 60.391785,0 109.349005,48.9572183 109.349005,109.3490093 z"
       transform="translate(307.07149,424.25558)" />
  </g>
</svg>
